<svg width="359" height="50" viewBox="0 0 359 50" fill="none" xmlns="http://www.w3.org/2000/svg">
<path d="M0 42.6562V35.5312V28.4375H7.09375V35.5312V42.6562H0ZM7.09375 49.75V42.6562H14.2188H21.3125H28.4375H35.5312V49.75H28.4375H21.3125H14.2188H7.09375ZM7.09375 21.3125V14.2188V7.09375H14.2188V14.2188V21.3125H7.09375ZM14.2188 28.4375V21.3125H21.3125H28.4375V28.4375H21.3125H14.2188ZM14.2188 7.09375V0H21.3125H28.4375H35.5312V7.09375H28.4375H21.3125H14.2188ZM28.4375 35.5312V28.4375H35.5312V35.5312H28.4375ZM35.5312 42.6562V35.5312H42.6562V42.6562H35.5312ZM35.5312 21.3125V14.2188V7.09375H42.6562V14.2188V21.3125H35.5312ZM49.75 14.2188V7.09375H56.8438H63.9688H71.0625V14.2188H63.9688V21.3125V28.4375V35.5312V42.6562H56.8438V35.5312V28.4375V21.3125V14.2188H49.75ZM63.9688 49.75V42.6562H71.0625H78.1875V49.75H71.0625H63.9688ZM78.1875 42.6562V35.5312V28.4375V21.3125V14.2188H85.2812V21.3125V28.4375V35.5312V42.6562H78.1875ZM85.2812 49.75V42.6562H92.4062H99.5V49.75H92.4062H85.2812ZM92.4062 14.2188V7.09375H99.5H106.625H113.75V14.2188H106.625V21.3125V28.4375V35.5312V42.6562H99.5V35.5312V28.4375V21.3125V14.2188H92.4062ZM120.875 42.6562V35.5312V28.4375H127.969V35.5312V42.6562H120.875ZM127.969 49.75V42.6562H135.094H142.188H149.312V35.5312V28.4375H142.188H135.094H127.969V21.3125H135.094H142.188H149.312V14.2188H156.406V21.3125V28.4375V35.5312V42.6562H163.531V49.75H156.406H149.312H142.188H135.094H127.969ZM127.969 14.2188V7.09375H135.094H142.188H149.312V14.2188H142.188H135.094H127.969ZM170.625 49.75V42.6562H177.719V35.5312V28.4375V21.3125V14.2188V7.09375H170.625V0H177.719H184.844V7.09375V14.2188V21.3125V28.4375V35.5312V42.6562H191.938V49.75H184.844H177.719H170.625ZM199.062 42.6562V35.5312V28.4375V21.3125H206.156V28.4375H213.281H220.375H227.5V35.5312H220.375H213.281H206.156V42.6562H199.062ZM206.156 49.75V42.6562H213.281H220.375H227.5H234.594V49.75H227.5H220.375H213.281H206.156ZM206.156 21.3125V14.2188H213.281V21.3125H206.156ZM213.281 14.2188V7.09375H220.375H227.5V14.2188H220.375H213.281ZM227.5 28.4375V21.3125V14.2188H234.594V21.3125V28.4375H227.5ZM234.594 42.6562V35.5312H241.719V42.6562H234.594ZM248.812 49.75V42.6562H255.906V35.5312V28.4375V21.3125V14.2188H263.031V21.3125V28.4375V35.5312V42.6562H270.125V49.75H263.031H255.906H248.812ZM248.812 14.2188V7.09375H255.906V14.2188H248.812ZM263.031 14.2188V7.09375H270.125H277.25H284.344V14.2188H277.25H270.125H263.031ZM277.25 28.4375V21.3125H284.344V28.4375H277.25ZM284.344 21.3125V14.2188H291.469V21.3125H284.344ZM298.562 21.3125V14.2188H305.656H312.781V7.09375V0H319.875V7.09375V14.2188H327H334.094V21.3125H327H319.875V28.4375V35.5312V42.6562H312.781V35.5312V28.4375V21.3125H305.656H298.562ZM319.875 49.75V42.6562H327H334.094V49.75H327H319.875ZM334.094 42.6562V35.5312V28.4375H341.219V35.5312V42.6562H334.094ZM348.312 49.75V39.1094H358.953V49.75H348.312Z" fill="#5F5E5E" fill-opacity="0.5"/>
</svg>
